# xmcd
#
# Track frame offsets: 
#        183
#        12935
#        24273
#        39525
#        50613
#        63873
#        75685
#        89320
#        100560
#        112795
#        122485
#        135323
#        147673
#        158933
#        176563
#        186105
#        198583
#        209618
#
# Disc length: 2954 seconds
#
# Revision: 3
# Processed by: cddbd v1.5.1PL0 Copyright (c) Steve Scherf et al.
# Submitted via: ExactAudioCopy v0.95a5
#
DISCID=ec0b8812
DTITLE=Dinah Washington - Mad About The Boy
DYEAR=1992
DGENRE=Blues
TTITLE0=Mad About The Boy
TTITLE1=What A Difference A Day Makes
TTITLE2=Smoke Gets In Your Eyes
TTITLE3=Such A Night
TTITLE4=Time Out For Tears
TTITLE5=Harbour Lights
TTITLE6=Trust In Me
TTITLE7=This Bitter Earth
TTITLE8=Unforgettable
TTITLE9=September In The Rain
TTITLE10=Make Me A Present
TTITLE11=I Wanna Be Loved
TTITLE12=Salty Papa Blues
TTITLE13=Mixed Emotions
TTITLE14=If I Were A Bell
TTITLE15=Teach Me Tonight
TTITLE16=If I Loved You
TTITLE17=Keeping Out Of Mischief Now
EXTD=
EXTT0=
EXTT1=
EXTT2=
EXTT3=
EXTT4=
EXTT5=
EXTT6=
EXTT7=
EXTT8=
EXTT9=
EXTT10=
EXTT11=
EXTT12=
EXTT13=
EXTT14=
EXTT15=
EXTT16=
EXTT17=
PLAYORDER=
